# xmcd
#
# Track frame offsets: 
#        150
#        18746
#        38408
#        59568
#        81704
#        98669
#        112406
#        131131
#        153453
#        179103
#
# Disc length: 2641 seconds
#
# Revision: 0
# Processed by: cddbd v1.5.2PL0 Copyright (c) Steve Scherf et al.
# Submitted via: ExactAudioCopyFreeDBPlugin 1.0
#
DISCID=940a4f0a
DTITLE=The Kirby Sewell Band - The Blues Found Me
DYEAR=2009
DGENRE=Blues
TTITLE0=Ain't No Sunshine
TTITLE1=Beautiful Tomorrow
TTITLE2=Black Cat Bone
TTITLE3=Come on into My Kitchen
TTITLE4=Melanie
TTITLE5=Something You Got
TTITLE6=Honey Hush
TTITLE7=I Got the Blues
TTITLE8=Feels Like Rain
TTITLE9=Don't Need No Doctor
EXTD=
EXTT0=
EXTT1=
EXTT2=
EXTT3=
EXTT4=
EXTT5=
EXTT6=
EXTT7=
EXTT8=
EXTT9=
PLAYORDER=
